<svg width="46" height="45" viewBox="0 0 46 45" fill="none" xmlns="http://www.w3.org/2000/svg">
<g filter="url(#filter0_d_533_1773)">
<path d="M35.994 33.4028C35.8469 32.5359 35.6566 31.4001 35.4625 30.2642C35.1412 28.386 34.8272 26.5066 34.4848 24.6333C34.4131 24.2386 34.5058 23.9846 34.7951 23.7071C36.8654 21.724 38.9284 19.7324 40.9716 17.7209C41.9147 16.7923 42.2311 15.6528 41.8294 14.3764C41.4289 13.1062 40.5353 12.3391 39.2251 12.0986C38.2548 11.9198 37.2733 11.8002 36.2956 11.6596C34.3254 11.3759 32.3526 11.1058 30.3873 10.8C30.1933 10.7692 29.9609 10.5595 29.867 10.3733C28.5679 7.79212 27.2972 5.19614 26.0055 2.61127C25.2342 1.06972 23.6076 0.364305 22.0069 0.858834C21.0354 1.15851 20.3815 1.81213 19.9328 2.70993C18.661 5.25287 17.3668 7.78595 16.0949 10.3301C15.9367 10.6471 15.7599 10.7988 15.3805 10.8506C12.5981 11.2267 9.81951 11.6324 7.04088 12.0394C5.64044 12.2441 4.62688 12.9705 4.18067 14.3357C3.74063 15.6824 4.12381 16.8453 5.11883 17.8282C7.14841 19.8322 9.17058 21.8412 11.215 23.8304C11.4931 24.1017 11.5648 24.3484 11.4993 24.7134C11.0185 27.4376 10.5636 30.1656 10.0815 32.8886C9.83434 34.2858 10.1841 35.4673 11.3398 36.3219C12.5104 37.1864 13.7711 37.1852 15.048 36.5291C17.6115 35.2132 20.1788 33.9011 22.7362 32.5753C22.9859 32.4458 23.1663 32.4508 23.4123 32.579C25.9474 33.9171 28.4863 35.2478 31.0313 36.5673C32.4849 37.3221 34.0584 37.0582 35.1375 35.9026C35.7023 35.2983 36.0002 34.5276 35.9977 33.4028L35.994 33.4028Z" fill="white"/>
</g>
<defs>
<filter id="filter0_d_533_1773" x="0" y="0.702637" width="46" height="44.2958" filterUnits="userSpaceOnUse" color-interpolation-filters="sRGB">
<feFlood flood-opacity="0" result="BackgroundImageFix"/>
<feColorMatrix in="SourceAlpha" type="matrix" values="0 0 0 0 0 0 0 0 0 0 0 0 0 0 0 0 0 0 127 0" result="hardAlpha"/>
<feOffset dy="4"/>
<feGaussianBlur stdDeviation="2"/>
<feComposite in2="hardAlpha" operator="out"/>
<feColorMatrix type="matrix" values="0 0 0 0 0 0 0 0 0 0 0 0 0 0 0 0 0 0 0.25 0"/>
<feBlend mode="normal" in2="BackgroundImageFix" result="effect1_dropShadow_533_1773"/>
<feBlend mode="normal" in="SourceGraphic" in2="effect1_dropShadow_533_1773" result="shape"/>
</filter>
</defs>
</svg>
