<svg width="46" height="46" viewBox="0 0 46 46" fill="none" xmlns="http://www.w3.org/2000/svg">
<g clip-path="url(#clip0_533_1781)" filter="url(#filter0_d_533_1781)">
<path d="M4 14.9361H41.9977C41.9977 15.0924 41.9977 15.2408 41.9977 15.3881C41.9977 21.495 41.9989 27.602 41.9977 33.7089C41.9977 36.26 40.2621 37.9977 37.7153 37.9977C27.9055 37.9989 18.0945 37.9989 8.28466 37.9977C5.73788 37.9977 4.00227 36.2578 4.00227 33.7078C4.00113 27.6008 4.00227 21.4939 4.00227 15.3869V14.9349L4 14.9361ZM13.4994 21.7137C13.0474 21.7137 12.5954 21.7046 12.1433 21.7159C11.3741 21.7352 10.7929 22.3163 10.7873 23.0583C10.7816 23.7969 11.3628 24.4086 12.1218 24.4233C13.0395 24.4403 13.9583 24.4403 14.877 24.4233C15.6372 24.4097 16.2184 23.8003 16.2127 23.0606C16.2082 22.3231 15.6214 21.7352 14.8567 21.7159C14.4046 21.7046 13.9526 21.7137 13.5006 21.7137H13.4994ZM23.0057 24.4279C23.4441 24.4279 23.8814 24.4347 24.3198 24.4267C25.114 24.412 25.7099 23.8297 25.7122 23.0753C25.7144 22.3208 25.1185 21.7261 24.3278 21.7171C23.4373 21.7069 22.5468 21.7057 21.6575 21.7171C20.8679 21.7272 20.2788 22.3288 20.2878 23.0866C20.2957 23.8229 20.8837 24.4063 21.6507 24.4256C22.1027 24.4369 22.5548 24.4279 23.0068 24.4279H23.0057ZM32.5198 21.7148C32.0531 21.7148 31.5874 21.7035 31.1207 21.7171C30.3582 21.7397 29.7805 22.3378 29.7861 23.0798C29.7906 23.8003 30.3628 24.4063 31.0992 24.4211C32.0315 24.4415 32.9639 24.4403 33.8963 24.4211C34.635 24.4052 35.2048 23.8025 35.2105 23.0809C35.2161 22.3435 34.6338 21.7397 33.8759 21.7159C33.4239 21.7023 32.9719 21.7137 32.5198 21.7137V21.7148ZM13.513 28.4992C13.061 28.4992 12.609 28.4912 12.1569 28.5014C11.3673 28.5184 10.7782 29.1143 10.7873 29.8733C10.7963 30.6096 11.3832 31.1986 12.1501 31.21C13.0542 31.2224 13.9594 31.2247 14.8623 31.21C15.627 31.1975 16.2093 30.5983 16.2116 29.8597C16.2139 29.1222 15.6293 28.5241 14.8691 28.5026C14.4171 28.4901 13.9651 28.5003 13.513 28.5003V28.4992ZM22.9841 31.2134C23.4226 31.2134 23.8599 31.219 24.2983 31.2122C25.1185 31.1998 25.7212 30.6107 25.7122 29.8393C25.7031 29.086 25.1049 28.5094 24.3062 28.5014C23.4305 28.4935 22.5536 28.4924 21.6779 28.5014C20.8803 28.5105 20.2889 29.0928 20.2867 29.8506C20.2844 30.6039 20.8803 31.1952 21.67 31.2111C22.1073 31.2202 22.5457 31.2122 22.9841 31.2134ZM32.4904 31.2122C32.9571 31.2122 33.4239 31.2258 33.8895 31.2088C34.6293 31.1828 35.2026 30.596 35.2116 29.8744C35.2207 29.1358 34.6406 28.5184 33.8838 28.5037C32.9662 28.4867 32.0474 28.4878 31.1286 28.5037C30.3639 28.5162 29.785 29.1154 29.7861 29.8585C29.7861 30.596 30.3718 31.1896 31.1343 31.2111C31.5863 31.2236 32.0383 31.2134 32.4904 31.2122Z" fill="white"/>
<path d="M4.06685 12.1856C4.06685 10.1364 3.9377 8.1075 4.10423 6.10356C4.26624 4.154 6.03471 2.74932 8.00144 2.71761C9.21591 2.69835 10.4315 2.71307 11.6471 2.71194C11.7989 2.71194 11.9508 2.71194 12.1433 2.71194C12.1433 2.25202 12.1388 1.83175 12.1433 1.41148C12.1558 0.591327 12.7415 -0.00906011 13.5164 2.3406e-06C14.2698 0.00906479 14.8419 0.606054 14.8555 1.40582C14.8623 1.82609 14.8567 2.24749 14.8567 2.69042H21.6428C21.6428 2.29733 21.6405 1.89406 21.6428 1.49078C21.6484 0.617382 22.1945 0.0101976 22.9807 2.3406e-06C23.7817 -0.0101929 24.3504 0.607187 24.3561 1.49757C24.3584 1.88952 24.3561 2.28147 24.3561 2.69268H31.1411C31.1411 2.3755 31.1411 2.05718 31.1411 1.73773C31.1411 0.630976 31.6248 0.00679918 32.4858 2.3406e-06C33.3616 -0.0067945 33.8544 0.626444 33.8544 1.75925C33.8544 2.05491 33.8544 2.35171 33.8544 2.71307C34.0187 2.71307 34.1659 2.71307 34.3144 2.71307C35.4869 2.71307 36.6606 2.70854 37.8332 2.71421C40.2191 2.72667 41.9819 4.48252 41.9943 6.86481C42.0034 8.60254 41.9943 10.3414 41.9909 12.0791C41.9909 12.1052 41.9773 12.1312 41.9615 12.1845H4.06685V12.1856Z" fill="white"/>
</g>
<defs>
<filter id="filter0_d_533_1781" x="0" y="0" width="46" height="46" filterUnits="userSpaceOnUse" color-interpolation-filters="sRGB">
<feFlood flood-opacity="0" result="BackgroundImageFix"/>
<feColorMatrix in="SourceAlpha" type="matrix" values="0 0 0 0 0 0 0 0 0 0 0 0 0 0 0 0 0 0 127 0" result="hardAlpha"/>
<feOffset dy="4"/>
<feGaussianBlur stdDeviation="2"/>
<feComposite in2="hardAlpha" operator="out"/>
<feColorMatrix type="matrix" values="0 0 0 0 0 0 0 0 0 0 0 0 0 0 0 0 0 0 0.25 0"/>
<feBlend mode="normal" in2="BackgroundImageFix" result="effect1_dropShadow_533_1781"/>
<feBlend mode="normal" in="SourceGraphic" in2="effect1_dropShadow_533_1781" result="shape"/>
</filter>
<clipPath id="clip0_533_1781">
<rect width="38" height="38" fill="white" transform="translate(4)"/>
</clipPath>
</defs>
</svg>
