<svg width="169" height="175" viewBox="0 0 169 175" fill="none" xmlns="http://www.w3.org/2000/svg">
<g id="Vector">
<path d="M12 28.3165C17.2395 28.3165 22.3327 28.2085 27.4206 28.3587C30.192 28.4403 32.9791 28.8249 35.7113 29.3254C40.6005 30.2184 44.4883 32.908 46.9826 37.1649C49.6076 41.6457 52.1359 46.2504 54.0785 51.0579C60.4397 66.8053 66.5368 82.6634 72.6966 98.4925C76.4276 108.081 80.0906 117.696 83.7875 127.298C83.9444 127.704 84.1248 128.101 84.3706 128.683C84.619 128.104 84.8151 127.68 84.9824 127.245C93.6208 105.049 102.194 82.8294 110.929 60.6728C113.902 53.131 117.552 45.9027 121.787 38.972C125.905 32.2336 131.945 28.9066 139.608 28.4693C145.086 28.1558 150.579 28.1427 156.064 28.0004C156.318 27.9951 156.571 28.0426 157 28.0794C156.848 28.5562 156.746 28.9593 156.595 29.3465C141.885 67.2663 127.228 105.207 112.391 143.077C110.357 148.266 107.661 153.24 104.853 158.066C99.3101 167.583 90.622 172.472 80.0043 174.095C76.7858 174.588 73.5045 174.656 70.2573 174.98C69.1304 175.093 68.6075 174.733 68.1813 173.621C58.2278 147.755 48.235 121.906 38.2291 96.0611C29.6482 73.8914 21.0437 51.7296 12.4497 29.5625C12.2798 29.1252 12.1333 28.68 12.0026 28.3191L12 28.3165Z" fill="white"/>
<path d="M157.013 41.0026C185.838 88.1217 160.541 152.493 104 166C105.153 164.499 106.192 163.079 107.314 161.728C107.557 161.436 108.097 161.384 108.509 161.242C138.347 150.889 157.116 130.478 163.815 99.7499C167.809 81.4298 165.031 63.6817 156.401 46.944C155.678 45.54 155.401 44.3407 156.208 42.942C156.533 42.3804 156.712 41.7374 157.013 41V41.0026Z" fill="white"/>
<path d="M12.0932 42C12.5414 43.1126 13.0578 44.2043 13.3985 45.3482C13.5243 45.7687 13.3487 46.3694 13.1259 46.7898C8.25083 55.9647 5.14494 65.6958 4.12798 76.0224C2.12291 96.3518 6.88004 114.994 18.8449 131.63C28.6528 145.271 41.5796 154.937 57.4786 160.558C58.5716 160.944 58.928 161.667 59.2609 162.571C59.5439 163.339 59.8427 164.102 60 165C35.9313 157.259 18.0429 142.27 7.70566 119.178C-4.06266 92.8913 -2.04711 67.0539 11.6739 42.0209L12.0932 42.0026V42Z" fill="white"/>
<path d="M144 24.6297C142.775 24.7336 141.852 24.7522 140.949 24.8987C139.766 25.0932 138.901 24.7096 138.001 23.9078C128.613 15.5541 117.894 9.5525 105.764 6.48379C77.9399 -0.559332 52.9427 5.27442 30.9306 23.9025C29.4895 25.1225 28.5314 25.2823 25 24.595C35.7896 13.9611 48.3239 6.74484 62.7267 2.8983C77.1296 -0.948249 91.6012 -0.964232 106.017 2.83969C120.47 6.65427 133.047 13.8785 144 24.627V24.6297Z" fill="white"/>
</g>
</svg>
