<svg width="46" height="57" viewBox="0 0 46 57" fill="none" xmlns="http://www.w3.org/2000/svg">
<g filter="url(#filter0_d_533_1763)">
<path d="M20.853 48.9982C19.9618 48.935 19.0705 48.8805 18.1811 48.8049C14.5372 48.4937 10.9561 47.9171 7.62781 46.3245C6.36357 45.7197 5.18182 44.9832 4.30671 43.8739C4.13277 43.6542 3.99648 43.3343 4.00007 43.0635C4.04669 40.2439 4.05566 37.4171 4.5488 34.6256C4.91463 32.5565 5.56019 30.607 7.07549 29.0319C8.1353 27.9315 9.4354 27.1931 10.8449 26.6271C12.9 25.8009 15.0554 25.3298 17.2306 24.9448C17.3705 24.9202 17.575 24.994 17.6843 25.0924C18.9468 26.2351 20.4675 26.7572 22.1477 26.8925C23.8316 27.0261 25.4634 26.8345 26.9644 26.0241C27.4432 25.7657 27.8574 25.393 28.3129 25.0924C28.442 25.0063 28.6285 24.9219 28.7684 24.9465C30.9902 25.3473 33.1941 25.822 35.2904 26.6851C37.3025 27.5148 39.015 28.6962 40.1053 30.6123C40.9087 32.0256 41.3803 33.5585 41.522 35.1494C41.7533 37.767 41.8681 40.395 41.999 43.0214C42.0133 43.3044 41.8752 43.6507 41.6923 43.8775C40.5429 45.2926 38.972 46.1293 37.3078 46.8026C34.2396 48.0437 31.0064 48.5553 27.7211 48.8119C26.8962 48.8769 26.0714 48.9385 25.2465 49H20.853V48.9982Z" fill="white"/>
<path d="M12.9609 11.1223C13.004 9.26951 13.151 7.43073 13.7356 5.65173C14.8026 2.40663 17.141 0.680363 20.5105 0.191664C22.6068 -0.112454 24.6906 -0.0755382 26.751 0.453592C29.4624 1.15148 31.3363 2.79688 32.1576 5.40738C33.291 9.00933 33.5008 12.6869 32.3495 16.3258C31.365 19.4337 29.4947 21.9124 26.3637 23.2449C23.4514 24.4842 20.6306 24.1397 18.0376 22.38C15.3585 20.5623 13.8844 17.9483 13.2604 14.872C13.0111 13.6467 12.9735 12.3792 12.8408 11.1311C12.8802 11.1276 12.9215 11.1241 12.9609 11.1188V11.1223Z" fill="white"/>
</g>
<defs>
<filter id="filter0_d_533_1763" x="0" y="0" width="46" height="57" filterUnits="userSpaceOnUse" color-interpolation-filters="sRGB">
<feFlood flood-opacity="0" result="BackgroundImageFix"/>
<feColorMatrix in="SourceAlpha" type="matrix" values="0 0 0 0 0 0 0 0 0 0 0 0 0 0 0 0 0 0 127 0" result="hardAlpha"/>
<feOffset dy="4"/>
<feGaussianBlur stdDeviation="2"/>
<feComposite in2="hardAlpha" operator="out"/>
<feColorMatrix type="matrix" values="0 0 0 0 0 0 0 0 0 0 0 0 0 0 0 0 0 0 0.25 0"/>
<feBlend mode="normal" in2="BackgroundImageFix" result="effect1_dropShadow_533_1763"/>
<feBlend mode="normal" in="SourceGraphic" in2="effect1_dropShadow_533_1763" result="shape"/>
</filter>
</defs>
</svg>
