<svg width="46" height="51" viewBox="0 0 46 51" fill="none" xmlns="http://www.w3.org/2000/svg">
<g filter="url(#filter0_d_533_1757)">
<path d="M20.9409 0C21.7468 0.140154 22.5664 0.219177 23.3559 0.427918C28.2733 1.72509 31.962 4.8055 34.1507 9.79738C36.8003 15.8374 36.2534 21.7001 32.9275 27.2839C32.6765 27.7043 32.3738 28.0875 32.0711 28.5244C32.1624 28.6332 32.2524 28.7436 32.3465 28.8494C35.3193 32.2295 38.2921 35.6081 41.2649 38.9882C42.0681 39.9007 42.2195 40.9638 41.6876 41.927C41.0426 43.093 39.5712 43.3584 38.6194 42.4772C38.4735 42.3415 38.3371 42.1924 38.2048 42.0418C35.2307 38.6632 32.2579 35.2831 29.2865 31.9015C29.1992 31.8016 29.1351 31.6764 29.1024 31.6272C28.0851 32.2116 27.1796 32.8259 26.2101 33.2747C21.8682 35.2831 17.514 35.2801 13.2375 33.0839C8.76474 30.7877 5.84241 26.9722 4.56602 21.7582C3.43418 17.1391 4.00283 12.7019 6.24469 8.58072C8.61746 4.21805 12.1139 1.50144 16.6372 0.380206C17.3681 0.198303 18.1222 0.123753 18.8654 0C19.5568 0 20.2481 0 20.9395 0H20.9409ZM19.899 4.53414C13.4394 4.54458 8.17836 10.3028 8.17836 17.3627C8.17836 24.4271 13.4176 30.163 19.8977 30.1898C26.3464 30.2182 31.6647 24.3973 31.6361 17.3433C31.6061 10.2566 26.3546 4.5237 19.899 4.53414Z" fill="white"/>
</g>
<defs>
<filter id="filter0_d_533_1757" x="0" y="0" width="46" height="51" filterUnits="userSpaceOnUse" color-interpolation-filters="sRGB">
<feFlood flood-opacity="0" result="BackgroundImageFix"/>
<feColorMatrix in="SourceAlpha" type="matrix" values="0 0 0 0 0 0 0 0 0 0 0 0 0 0 0 0 0 0 127 0" result="hardAlpha"/>
<feOffset dy="4"/>
<feGaussianBlur stdDeviation="2"/>
<feComposite in2="hardAlpha" operator="out"/>
<feColorMatrix type="matrix" values="0 0 0 0 0 0 0 0 0 0 0 0 0 0 0 0 0 0 0.25 0"/>
<feBlend mode="normal" in2="BackgroundImageFix" result="effect1_dropShadow_533_1757"/>
<feBlend mode="normal" in="SourceGraphic" in2="effect1_dropShadow_533_1757" result="shape"/>
</filter>
</defs>
</svg>
