<svg width="46" height="56" viewBox="0 0 46 56" fill="none" xmlns="http://www.w3.org/2000/svg">
<g filter="url(#filter0_d_533_1777)">
<path d="M6.47118 47.3195C6.08206 47.1529 5.66002 47.0369 5.30994 46.8086C4.47804 46.2618 4.01696 45.4521 4.0133 44.4463C3.99744 39.95 3.99378 35.4538 4.0133 30.9587C4.02062 29.4123 5.2892 28.1608 6.81516 28.104C6.96763 28.0978 7.12011 28.1003 7.27136 28.1003C17.7579 28.1003 28.2444 28.1003 38.731 28.1003C40.8375 28.1003 42 29.2802 42 31.4203C42 35.5315 42 39.6427 42 43.7539C42 45.8446 41.4633 46.621 39.5336 47.3208H6.47118V47.3195ZM23.0237 29.5777C17.742 29.5777 12.4603 29.5777 7.17744 29.5777C6.02108 29.5777 5.46607 30.1355 5.46607 31.2982C5.46607 35.5636 5.46607 39.8291 5.46607 44.0945C5.46607 45.2843 6.01864 45.8385 7.20305 45.8385C17.7359 45.8385 28.27 45.8385 38.8029 45.8385C39.9898 45.8385 40.5387 45.2868 40.5387 44.0933C40.5387 39.8426 40.5387 35.5932 40.5387 31.3426C40.5387 30.1244 39.9922 29.5764 38.7773 29.5764C33.5261 29.5764 28.2749 29.5764 23.0225 29.5764L23.0237 29.5777Z" fill="white"/>
<path d="M31.7721 22.2871C31.7721 23.0116 31.7745 23.6361 31.7721 24.2594C31.7647 25.6985 30.8523 26.6205 29.4215 26.6205C22.7102 26.6229 15.999 26.6229 9.28645 26.6205C7.83368 26.6205 6.92982 25.6985 6.9286 24.2211C6.92616 20.8962 6.92616 17.57 6.9286 14.245C6.9286 12.7442 7.83246 11.8407 9.32427 11.8383C9.65727 11.8383 9.99149 11.8383 10.4221 11.8383C8.35697 9.87831 7.55069 7.57403 8.27647 4.84024C8.76804 2.99138 9.90489 1.62757 11.5797 0.741406C14.9756 -1.05438 19.5315 0.45877 20.933 4.77359C22.1321 3.47766 23.5861 2.83464 25.3291 2.99509C26.5526 3.10863 27.6089 3.62454 28.4737 4.51441C30.3998 6.49903 30.4132 8.98227 28.4737 11.8383C28.8543 11.8383 29.1959 11.8345 29.5362 11.8383C30.817 11.8555 31.7525 12.7923 31.7696 14.0845C31.7782 14.7448 31.7708 15.4039 31.7708 16.137C31.9258 16.0222 32.0331 15.9507 32.1307 15.868C32.7162 15.3768 33.298 14.8806 33.886 14.3918C34.3263 14.0265 34.7386 13.713 34.7544 13.0071C34.7691 12.327 35.4327 11.8605 36.1304 11.8407C36.6317 11.8271 37.1355 11.8259 37.6368 11.8407C38.437 11.8642 39.0676 12.4726 39.0701 13.2811C39.081 17.2528 39.0823 21.2257 39.0688 25.1974C39.0664 25.9824 38.4394 26.5859 37.6624 26.6155C37.1611 26.634 36.6573 26.6303 36.156 26.618C35.329 26.597 34.7081 25.9886 34.7044 25.1542C34.7032 24.8383 34.5886 24.6519 34.3605 24.4643C33.5151 23.7694 32.6845 23.0573 31.7708 22.2871H31.7721ZM8.39113 17.7502H8.98517C13.6106 17.7502 18.2373 17.7539 22.8627 17.7464C23.6824 17.7452 24.3338 18.0427 24.8388 18.698C25.4377 19.4744 26.0427 20.247 26.6685 21.0011C26.8246 21.1887 27.0686 21.4108 27.2808 21.4195C28.2774 21.4639 29.2776 21.4392 30.3108 21.4392V20.8949C30.3108 18.74 30.3108 16.5851 30.3108 14.4301C30.3108 13.5156 30.1156 13.3168 29.219 13.3168C22.6456 13.3168 16.0721 13.3168 9.4987 13.3168C9.37672 13.3168 9.25474 13.3107 9.13398 13.3193C8.67778 13.3502 8.39967 13.6192 8.39479 14.0882C8.38259 15.2879 8.39113 16.4863 8.39113 17.7526V17.7502ZM9.79754 25.1419C9.8256 25.0629 9.8439 25.0345 9.8439 25.0073C9.84756 24.1298 9.84878 23.2523 9.85122 22.3748C9.85366 21.2714 10.416 20.7073 11.5162 20.7073C14.6206 20.7073 17.7262 20.7518 20.8293 20.6888C22.4821 20.6555 23.1213 21.2306 23.0115 22.924C22.964 23.6534 23.0042 24.3878 23.0042 25.1394C25.2437 25.1394 27.4186 25.1456 29.5935 25.1345C29.9948 25.132 30.2644 24.8815 30.2949 24.4803C30.3327 23.9792 30.3047 23.4732 30.3047 22.924C29.3447 22.924 28.4201 22.9153 27.4967 22.9265C26.6929 22.9351 26.0573 22.6228 25.5621 21.9847C24.9705 21.222 24.3533 20.479 23.7715 19.7089C23.5055 19.3559 23.1945 19.2201 22.759 19.2213C18.1177 19.2324 13.4764 19.2275 8.83513 19.2275H8.39113C8.39113 20.9813 8.38625 22.6586 8.39479 24.3359C8.39723 24.8518 8.68022 25.1197 9.19375 25.1394C9.39014 25.1468 9.58774 25.1394 9.79876 25.1394L9.79754 25.1419ZM9.4865 6.64837C9.49016 9.51916 11.7858 11.8358 14.623 11.8358C17.4237 11.8358 19.7169 9.49818 19.7132 6.6496C19.7083 3.78499 17.4017 1.47576 14.5559 1.48811C11.7748 1.49922 9.48284 3.83312 9.4865 6.64837ZM28.4811 8.15658C28.4872 6.13 26.8685 4.46134 24.8802 4.44529C22.8347 4.42925 21.1794 6.08433 21.177 8.14794C21.1745 10.1647 22.8103 11.8284 24.8022 11.8358C26.8283 11.8432 28.475 10.1967 28.4811 8.15658ZM36.1877 13.3366V25.1048H37.5941V13.3366H36.1877ZM34.6715 15.6582C34.064 16.1691 33.5493 16.7035 32.9418 17.0898C31.9733 17.7057 31.6098 18.5067 31.7452 19.6558C31.8038 20.1482 31.8867 20.5025 32.2868 20.8135C33.087 21.4368 33.8481 22.1106 34.6715 22.8006V15.6582ZM11.3259 22.2032V25.1073H12.7372V22.2032H11.3259ZM15.6708 25.1209V22.2131H14.2669V25.1209H15.6708ZM17.1919 22.1983V25.1197H18.5922V22.1983H17.1919ZM21.5197 22.2106H20.1133V25.1209H21.5197V22.2106ZM20.1389 10.3128C19.7132 10.8027 19.2802 11.3001 18.8508 11.7938H21.1453C20.794 11.2754 20.4597 10.7842 20.1389 10.3128Z" fill="white"/>
<path d="M11.315 16.2679C11.0564 16.2679 10.7966 16.2851 10.5392 16.2642C10.1342 16.2308 9.8561 15.9223 9.85366 15.5372C9.85122 15.1521 10.1281 14.8251 10.5319 14.8053C11.0478 14.7806 11.5675 14.7806 12.0834 14.8053C12.4884 14.8238 12.7665 15.1447 12.769 15.5298C12.7714 15.9136 12.4921 16.2296 12.0908 16.2642C11.8334 16.2864 11.5736 16.2679 11.315 16.2691V16.2679Z" fill="white"/>
<path d="M15.7001 16.2679C15.4415 16.2679 15.1817 16.2851 14.9243 16.2642C14.5194 16.2308 14.2412 15.9223 14.2388 15.5372C14.2364 15.1521 14.5133 14.8251 14.917 14.8053C15.433 14.7806 15.9526 14.7806 16.4686 14.8053C16.8735 14.8238 17.1517 15.1447 17.1541 15.5298C17.1565 15.9136 16.8772 16.2185 16.4759 16.2679C16.4454 16.2716 16.4149 16.2716 16.3844 16.2716C16.1563 16.2716 15.9282 16.2716 15.7001 16.2716C15.7001 16.2716 15.7001 16.2691 15.7001 16.2679Z" fill="white"/>
<path d="M14.5523 10.356C12.5396 10.335 10.9234 8.65274 10.9478 6.6027C10.971 4.58846 12.6262 2.95189 14.623 2.9667C16.6576 2.98151 18.2824 4.67362 18.2519 6.74464C18.2226 8.75271 16.5601 10.3757 14.5523 10.3547V10.356ZM14.5925 4.44776C13.3996 4.45146 12.4177 5.4413 12.4116 6.64713C12.4042 7.87395 13.3923 8.87613 14.6096 8.87736C15.7977 8.8786 16.7882 7.87888 16.7906 6.67799C16.793 5.44501 15.805 4.44282 14.5925 4.44776Z" fill="white"/>
<path d="M24.8351 5.92635C26.0476 5.93005 27.0332 6.94211 27.0185 8.16892C27.0039 9.37475 26.022 10.3535 24.8229 10.356C23.6348 10.3584 22.6432 9.35994 22.6395 8.15905C22.6371 6.92607 23.6226 5.92265 24.8351 5.92635ZM25.5572 8.14424C25.5597 7.74682 25.2376 7.41235 24.8449 7.40494C24.4338 7.39754 24.0923 7.74435 24.1032 8.16028C24.113 8.5577 24.446 8.88107 24.8388 8.87613C25.2316 8.87119 25.556 8.54042 25.5585 8.143L25.5572 8.14424Z" fill="white"/>
<path d="M24.4643 39.908H25.9256C25.9256 39.6032 25.9256 39.3156 25.9256 39.0281C25.9256 37.6581 25.9232 36.2893 25.9256 34.9193C25.9268 34.3467 26.2147 34.006 26.6709 34.0159C27.11 34.0258 27.3833 34.3565 27.3845 34.9058C27.3881 36.3979 27.3857 37.8913 27.3857 39.3835C27.3857 39.5489 27.3857 39.7155 27.3857 39.9019H28.847V39.4205C28.847 37.9284 28.8458 36.435 28.847 34.9428C28.847 34.3565 29.1141 34.0208 29.5691 34.0159C30.0253 34.011 30.3059 34.3504 30.3071 34.928C30.3108 36.5584 30.312 38.19 30.3071 39.8204C30.3034 40.7955 29.7021 41.4163 28.7348 41.3965C28.0578 41.3829 27.3833 41.2521 26.7075 41.2496C26.0781 41.2484 25.4487 41.3842 24.818 41.3965C23.5202 41.4212 23.003 40.8781 23.003 39.5563C23.003 38.0172 23.0018 36.4794 23.003 34.9403C23.003 34.3553 23.2726 34.0196 23.7275 34.0159C24.185 34.0122 24.4619 34.3491 24.4631 34.9305C24.4655 36.5744 24.4631 38.2196 24.4631 39.9068L24.4643 39.908Z" fill="white"/>
<path d="M11.3125 37.0015C11.3125 38.2419 11.3137 39.3477 11.3125 40.4536C11.3113 41.0633 11.0295 41.4138 10.5636 41.4015C10.1086 41.3891 9.85365 41.0583 9.85244 40.4622C9.85 38.6158 9.85609 36.7694 9.84878 34.9218C9.84756 34.5108 9.96222 34.185 10.3721 34.0517C10.7661 33.9233 11.0356 34.127 11.2637 34.4368C12.2176 35.7315 13.1776 37.02 14.1924 38.3875C14.2132 38.1999 14.2339 38.0938 14.2351 37.9876C14.2376 36.9718 14.2351 35.9561 14.2376 34.9403C14.2388 34.3553 14.5072 34.0196 14.9621 34.0159C15.4183 34.0122 15.6964 34.3516 15.6964 34.9305C15.6989 36.7768 15.694 38.6232 15.7001 40.4709C15.7013 40.8757 15.6062 41.2114 15.1963 41.3558C14.7804 41.5027 14.5059 41.2805 14.2693 40.9596C13.3874 39.7636 12.5006 38.5714 11.615 37.3791C11.5443 37.2841 11.4674 37.194 11.3125 37.0015Z" fill="white"/>
<path d="M18.6386 35.4908V36.9706C19.307 36.9706 19.956 36.9681 20.6049 36.9706C21.2062 36.9731 21.5527 37.2582 21.538 37.7309C21.5234 38.1863 21.1904 38.4455 20.6061 38.448C19.9682 38.4504 19.3302 38.448 18.6557 38.448V39.9266C19.3387 39.9266 20.0316 39.9192 20.7256 39.929C21.2245 39.9352 21.5417 40.2351 21.5392 40.6708C21.5368 41.0719 21.2416 41.3916 20.8074 41.399C19.834 41.415 18.8606 41.415 17.8872 41.399C17.4542 41.3916 17.1687 41.104 17.1663 40.6646C17.1553 38.6948 17.1553 36.725 17.1663 34.7564C17.1687 34.3158 17.4529 34.0295 17.886 34.0221C18.8594 34.006 19.8328 34.006 20.8062 34.0221C21.2404 34.0282 21.5356 34.3467 21.5392 34.7478C21.5429 35.1662 21.2367 35.4797 20.7732 35.4895C20.0755 35.5031 19.3778 35.4933 18.6398 35.4933L18.6386 35.4908Z" fill="white"/>
<path d="M33.2553 35.492V36.9706C33.9274 36.9706 34.5776 36.9681 35.2277 36.9706C35.8913 36.9743 36.1511 37.2261 36.1548 37.879C36.1596 38.7565 36.1596 39.6328 36.1548 40.5103C36.1511 41.1398 35.8876 41.4002 35.2594 41.4039C34.3922 41.4089 33.5249 41.4089 32.6589 41.4039C32.1112 41.4015 31.7879 41.1324 31.7757 40.6856C31.7635 40.2228 32.099 39.9315 32.665 39.9278C33.3175 39.9229 33.9713 39.9278 34.6593 39.9278V38.4492C34.0189 38.4492 33.37 38.4517 32.7223 38.4492C32.0136 38.4467 31.7745 38.1999 31.7721 37.4717C31.7696 36.6102 31.7672 35.7487 31.7733 34.886C31.7782 34.285 32.0441 34.0196 32.643 34.0159C33.5249 34.0097 34.408 34.0097 35.2899 34.0159C35.8254 34.0196 36.1523 34.3072 36.1511 34.7552C36.1499 35.202 35.8218 35.4871 35.2851 35.4908C34.6191 35.497 33.953 35.492 33.2553 35.492Z" fill="white"/>
</g>
<defs>
<filter id="filter0_d_533_1777" x="0" y="0" width="46" height="55.3208" filterUnits="userSpaceOnUse" color-interpolation-filters="sRGB">
<feFlood flood-opacity="0" result="BackgroundImageFix"/>
<feColorMatrix in="SourceAlpha" type="matrix" values="0 0 0 0 0 0 0 0 0 0 0 0 0 0 0 0 0 0 127 0" result="hardAlpha"/>
<feOffset dy="4"/>
<feGaussianBlur stdDeviation="2"/>
<feComposite in2="hardAlpha" operator="out"/>
<feColorMatrix type="matrix" values="0 0 0 0 0 0 0 0 0 0 0 0 0 0 0 0 0 0 0.25 0"/>
<feBlend mode="normal" in2="BackgroundImageFix" result="effect1_dropShadow_533_1777"/>
<feBlend mode="normal" in="SourceGraphic" in2="effect1_dropShadow_533_1777" result="shape"/>
</filter>
</defs>
</svg>
